<svg width="17.12" height="17.12" viewBox="0 0 18 18" fill="none" xmlns="http://www.w3.org/2000/svg">
<path d="M0.437866 9C0.437866 7.4474 0.820318 6.01469 1.58519 4.70183C2.35007 3.38897 3.38895 2.35011
 4.70179 1.58523C6.01465 0.820343 7.44738 0.437908 8.99996 0.437908C10.5526 0.437908 11.9853 0.820343 
 13.2981 1.58523C14.611 2.35011 15.6499 3.38897 16.4147 4.70183C17.1796 6.01469 17.562 7.4474 17.562
  9C17.562 10.5526 17.1796 11.9853 16.4147 13.2982C15.6499 14.611 14.611 15.6499 13.2981 16.4148C11.9853
   17.1797 10.5526 17.5621 8.99996 17.5621C7.44738 17.5621 6.01465 17.1797 4.70179 16.4148C3.38895
    15.6499 2.35007 14.611 1.58519 13.2982C0.820318 11.9853 0.437866 10.5526 0.437866 9ZM1.85917
     9C1.85917 10.7809 2.45852 12.3506 3.65721 13.7092C4.20519 12.636 5.07282 11.6143 6.26009
      10.6439C7.44738 9.67355 8.6061 9.06279 9.7363 8.81163C9.56506 8.41208 9.39953
       8.05247 9.2397 7.73281C7.27613 8.3607 5.15274 8.67464 2.8695 8.67464C2.42427
        8.67464 2.09321 8.66894 1.8763 8.65752C1.8763 8.70319 1.87346 8.76026 1.86774 
        8.82876C1.86203 8.89725 1.85917 8.95433 1.85917 9ZM2.08179 7.23621C2.33295
         7.25904 2.70398 7.27046 3.19486 7.27046C5.10136 7.27046 6.91081
          7.01359 8.62323 6.49987C7.75561 4.95869 6.80236 3.67438 
          5.76349 2.64693C4.86163 3.10358 4.08818 3.73717 3.44316 4.54771C2.79816 5.35825 2.34437
           6.25443 2.08179 7.23621ZM4.63329 14.6339C5.92332 15.6385 7.37888 16.1408 8.99996
            16.1408C9.84476 16.1408 10.6838 15.981 11.5172 15.6613C11.2889 13.7092 10.8437
             11.8198 10.1815 9.9932C9.13125 10.2215 8.07241 10.798 7.00499 11.7227C5.93759
              12.6475 5.14702 13.6178 4.63329 14.6339ZM7.25329 2.09895C8.25792 3.13783
               9.18832 4.43355 10.0445 5.98614C11.5971 5.33542 12.7673 4.50776 13.555
                3.50314C12.2307 2.40719 10.7124 1.85922 8.99996 1.85922C8.41774
                 1.85922 7.83551 1.93913 7.25329 2.09895ZM10.661 7.20196C10.8322 7.56727
                  11.0263 8.02962 11.2432 8.58902C12.088 8.5091 13.007 8.46915 14.0002
                   8.46915C14.708 8.46915 15.4101 8.48627 16.1065 8.52052C16.0152 6.96792 15.4558 5.58659 
                   14.4283 4.37647C13.6863 5.48384 12.4305 6.42567 10.661 7.20196ZM11.6713
                    9.78771C12.2536 11.4773 12.6474 13.2125 12.8529 14.9935C13.7548
                     14.4112 14.4911 13.6635 15.0619 12.7502C15.6327 11.8369
                      15.9752 10.8494 16.0894 9.78771C15.256 9.73064 14.4968
                       9.70209 13.8119 9.70209C13.184 9.70209 12.4705 9.73064 11.6713 9.78771Z"
                        fill="white"/>
</svg>