<svg width="18" height="10.7" viewBox="0 0 18 11" fill="none" xmlns="http://www.w3.org/2000/svg">
<path d="M7.34778 5.07677C7.34778 5.07677 8.968 4.95805 8.968 3.0827C8.968 1.20721 7.64245 0.291939 5.96336 0.291939H0.43811V10.7724H5.96336C5.96336 10.7724 9.33632 10.8776 9.33632 7.67906C9.33632 7.67909 9.48337 5.07677 7.34778 5.07677V5.07677ZM5.56566 2.15473H5.96336C5.96336 2.15473 6.7144 2.15473 6.7144 3.24517C6.7144 4.33549 6.27271 4.49357 5.77171 4.49357H2.8726V2.15473H5.56566V2.15473ZM5.80722 8.9097H2.8726V6.10892H5.96336C5.96336 6.10892 7.08275 6.09443 7.08275 7.54823C7.08275 8.77411 6.24667 8.90044 5.80722 8.9097V8.9097ZM13.8347 2.95848C9.75141 2.95848 9.75503 6.9854 9.75503 6.9854C9.75503 6.9854 9.47486 10.9916 13.8347 10.9916C13.8347 10.9916 17.4679 11.1965 17.4679 8.20472H15.5994C15.5994 8.20472 15.6618 9.33138 13.8971 9.33138C13.8971 9.33138 12.0283 9.455 12.0283 7.50802H17.5303C17.5303 7.50798 18.1323 2.95848 13.8347 2.95848ZM12.0077 6.10892C12.0077 6.10892 12.2359 4.49354 13.8763 4.49354C15.5163 4.49354 15.4957 6.10892 15.4957 6.10892H12.0077ZM15.931 2.19997H11.5503V0.909373H15.931V2.19997Z" fill="white"/>
</svg>
