<svg width="25" height="25" viewBox="0 0 25 25" fill="none" xmlns="http://www.w3.org/2000/svg">
<path d="M6.87125 18.9092V21.1592" stroke="#6D737A" stroke-width="1.60606" stroke-linecap="round" stroke-linejoin="round"/>
<path d="M17.3712 18.9092V21.1592" stroke="#6D737A" stroke-width="1.60606" stroke-linecap="round" stroke-linejoin="round"/>
<path d="M5.37122 10.6594V5.78442C5.37122 5.28714 5.56876 4.81023 5.92039 4.4586C6.27202 4.10697 6.74894 3.90942 7.24622 3.90942C7.7435 3.90942 8.22041 4.10697 8.57204 4.4586C8.92367 4.81023 9.12122 5.28714 9.12122 5.78442" stroke="#6D737A" stroke-width="1.60606" stroke-linecap="round" stroke-linejoin="round"/>
<path d="M18.8712 9.90918H12.8712V14.4092H18.8712V9.90918Z" stroke="#6D737A" stroke-width="1.60606" stroke-linecap="round" stroke-linejoin="round"/>
<path d="M18.8712 10.6592H21.8712C22.0701 10.6592 22.2609 10.7382 22.4015 10.8788C22.5422 11.0195 22.6212 11.2103 22.6212 11.4092V14.4092C22.6212 15.6027 22.1471 16.7472 21.3032 17.5912C20.4593 18.4351 19.3147 18.9092 18.1212 18.9092H6.12122C4.92774 18.9092 3.78315 18.4351 2.93924 17.5912C2.09532 16.7472 1.62122 15.6027 1.62122 14.4092V11.4092C1.62122 11.2103 1.70023 11.0195 1.84089 10.8788C1.98154 10.7382 2.1723 10.6592 2.37122 10.6592H12.8712" stroke="#6D737A" stroke-width="1.60606" stroke-linecap="round" stroke-linejoin="round"/>
</svg>