<svg width="25" height="25" viewBox="0 0 25 25" fill="none" xmlns="http://www.w3.org/2000/svg">
<path d="M2.19696 12.1592H23.197" stroke="#6D737A" stroke-width="1.60606" stroke-linecap="round" stroke-linejoin="round"/>
<path d="M21.697 18.1592V20.4092C21.697 20.6081 21.6179 20.7989 21.4773 20.9395C21.3366 21.0802 21.1459 21.1592 20.947 21.1592H18.697C18.498 21.1592 18.3073 21.0802 18.1666 20.9395C18.026 20.7989 17.947 20.6081 17.947 20.4092V18.1592" stroke="#6D737A" stroke-width="1.60606" stroke-linecap="round" stroke-linejoin="round"/>
<path d="M7.44696 18.1592V20.4092C7.44696 20.6081 7.36794 20.7989 7.22729 20.9395C7.08664 21.0802 6.89587 21.1592 6.69696 21.1592H4.44696C4.24805 21.1592 4.05728 21.0802 3.91663 20.9395C3.77598 20.7989 3.69696 20.6081 3.69696 20.4092V18.1592" stroke="#6D737A" stroke-width="1.60606" stroke-linecap="round" stroke-linejoin="round"/>
<path d="M6.69696 15.1594H8.19696" stroke="#6D737A" stroke-width="1.60606" stroke-linecap="round" stroke-linejoin="round"/>
<path d="M17.197 15.1594H18.697" stroke="#6D737A" stroke-width="1.60606" stroke-linecap="round" stroke-linejoin="round"/>
<path d="M21.697 12.1592L18.8938 5.85918C18.8357 5.7259 18.74 5.6124 18.6185 5.53251C18.497 5.45261 18.3549 5.40976 18.2095 5.40918H7.18446C7.03904 5.40976 6.89693 5.45261 6.77542 5.53251C6.65391 5.6124 6.55825 5.7259 6.50009 5.85918L3.69696 12.1592V18.1592H21.697V12.1592Z" stroke="#6D737A" stroke-width="1.60606" stroke-linecap="round" stroke-linejoin="round"/>
</svg>
