<svg width="520" height="223" viewBox="0 0 520 223" fill="none" xmlns="http://www.w3.org/2000/svg">
<g filter="url(#filter0_d_81_1985)">
<rect x="73" y="48" width="374" height="76" rx="4" fill="white" shape-rendering="crispEdges"/>
<path d="M98.5 85.25H119.5" stroke="#4A60A1" stroke-width="1.60606" stroke-linecap="round" stroke-linejoin="round"/>
<path d="M118 91.25V93.5C118 93.6989 117.921 93.8897 117.78 94.0303C117.64 94.171 117.449 94.25 117.25 94.25H115C114.801 94.25 114.61 94.171 114.47 94.0303C114.329 93.8897 114.25 93.6989 114.25 93.5V91.25" stroke="#4A60A1" stroke-width="1.60606" stroke-linecap="round" stroke-linejoin="round"/>
<path d="M103.75 91.25V93.5C103.75 93.6989 103.671 93.8897 103.53 94.0303C103.39 94.171 103.199 94.25 103 94.25H100.75C100.551 94.25 100.36 94.171 100.22 94.0303C100.079 93.8897 100 93.6989 100 93.5V91.25" stroke="#4A60A1" stroke-width="1.60606" stroke-linecap="round" stroke-linejoin="round"/>
<path d="M103 88.25H104.5" stroke="#4A60A1" stroke-width="1.60606" stroke-linecap="round" stroke-linejoin="round"/>
<path d="M113.5 88.25H115" stroke="#4A60A1" stroke-width="1.60606" stroke-linecap="round" stroke-linejoin="round"/>
<path d="M118 85.25L115.197 78.95C115.139 78.8167 115.043 78.7032 114.922 78.6233C114.8 78.5434 114.658 78.5006 114.512 78.5H103.487C103.342 78.5006 103.2 78.5434 103.078 78.6233C102.957 78.7032 102.861 78.8167 102.803 78.95L100 85.25V91.25H118V85.25Z" stroke="#4A60A1" stroke-width="1.60606" stroke-linecap="round" stroke-linejoin="round"/>
<path d="M130.03 90.3011V88.206L136.202 78.4545H137.949V81.4375H136.884L132.729 88.0213V88.1349H141.344V90.3011H130.03ZM136.969 93V89.6619L136.997 88.7244V78.4545H139.483V93H136.969Z" fill="#4A60A1"/>
<line x1="167" y1="76.5" x2="167" y2="95.5" stroke="#E7E9EB" stroke-width="1.5"/>
<path d="M196.25 92V94.25" stroke="#4A60A1" stroke-width="1.60606" stroke-linecap="round" stroke-linejoin="round"/>
<path d="M206.75 92V94.25" stroke="#4A60A1" stroke-width="1.60606" stroke-linecap="round" stroke-linejoin="round"/>
<path d="M194.75 83.75V78.875C194.75 78.3777 194.948 77.9008 195.299 77.5492C195.651 77.1975 196.128 77 196.625 77C197.122 77 197.599 77.1975 197.951 77.5492C198.302 77.9008 198.5 78.3777 198.5 78.875" stroke="#4A60A1" stroke-width="1.60606" stroke-linecap="round" stroke-linejoin="round"/>
<path d="M208.25 83H202.25V87.5H208.25V83Z" stroke="#4A60A1" stroke-width="1.60606" stroke-linecap="round" stroke-linejoin="round"/>
<path d="M208.25 83.75H211.25C211.449 83.75 211.64 83.829 211.78 83.9697C211.921 84.1103 212 84.3011 212 84.5V87.5C212 88.6935 211.526 89.8381 210.682 90.682C209.838 91.5259 208.693 92 207.5 92H195.5C194.307 92 193.162 91.5259 192.318 90.682C191.474 89.8381 191 88.6935 191 87.5V84.5C191 84.3011 191.079 84.1103 191.22 83.9697C191.36 83.829 191.551 83.75 191.75 83.75H202.25" stroke="#4A60A1" stroke-width="1.60606" stroke-linecap="round" stroke-linejoin="round"/>
<path d="M222.53 90.3011V88.206L228.702 78.4545H230.449V81.4375H229.384L225.229 88.0213V88.1349H233.844V90.3011H222.53ZM229.469 93V89.6619L229.497 88.7244V78.4545H231.983V93H229.469Z" fill="#4A60A1"/>
<line x1="259.5" y1="76.5" x2="259.5" y2="95.5" stroke="#E7E9EB" stroke-width="1.5"/>
<path d="M297.75 78.5H301.5V82.25" stroke="#4A60A1" stroke-width="1.60606" stroke-linecap="round" stroke-linejoin="round"/>
<path d="M296.25 83.75L301.5 78.5" stroke="#4A60A1" stroke-width="1.60606" stroke-linecap="round" stroke-linejoin="round"/>
<path d="M290.25 93.5H286.5V89.75" stroke="#4A60A1" stroke-width="1.60606" stroke-linecap="round" stroke-linejoin="round"/>
<path d="M291.75 88.25L286.5 93.5" stroke="#4A60A1" stroke-width="1.60606" stroke-linecap="round" stroke-linejoin="round"/>
<path d="M301.5 89.75V93.5H297.75" stroke="#4A60A1" stroke-width="1.60606" stroke-linecap="round" stroke-linejoin="round"/>
<path d="M296.25 88.25L301.5 93.5" stroke="#4A60A1" stroke-width="1.60606" stroke-linecap="round" stroke-linejoin="round"/>
<path d="M286.5 82.25V78.5H290.25" stroke="#4A60A1" stroke-width="1.60606" stroke-linecap="round" stroke-linejoin="round"/>
<path d="M291.75 83.75L286.5 78.5" stroke="#4A60A1" stroke-width="1.60606" stroke-linecap="round" stroke-linejoin="round"/>
<path d="M315.293 93V91.0966L320.342 86.1463C320.825 85.6586 321.228 85.2254 321.55 84.8466C321.872 84.4678 322.113 84.1009 322.274 83.7457C322.435 83.3906 322.516 83.0118 322.516 82.6094C322.516 82.1501 322.411 81.7571 322.203 81.4304C321.995 81.099 321.708 80.8433 321.344 80.6634C320.979 80.4834 320.565 80.3935 320.101 80.3935C319.623 80.3935 319.204 80.4929 318.844 80.6918C318.484 80.8859 318.205 81.1629 318.006 81.5227C317.812 81.8826 317.714 82.3111 317.714 82.8082H315.207C315.207 81.8849 315.418 81.0824 315.839 80.4006C316.261 79.7187 316.841 79.1908 317.58 78.8168C318.323 78.4427 319.175 78.2557 320.136 78.2557C321.112 78.2557 321.969 78.438 322.707 78.8026C323.446 79.1671 324.019 79.6667 324.426 80.3011C324.838 80.9356 325.044 81.66 325.044 82.4744C325.044 83.0189 324.94 83.554 324.732 84.0795C324.523 84.6051 324.156 85.1875 323.631 85.8267C323.11 86.4659 322.378 87.2401 321.436 88.1491L318.929 90.6989V90.7983H325.264V93H315.293ZM330.761 91.0114L330.669 91.7926C330.603 92.3892 330.484 92.9953 330.314 93.6108C330.148 94.2311 329.973 94.8016 329.788 95.3224C329.604 95.8433 329.455 96.2528 329.341 96.5511H327.608C327.674 96.2623 327.764 95.8693 327.878 95.3722C327.996 94.875 328.11 94.3163 328.219 93.696C328.328 93.0758 328.401 92.446 328.439 91.8068L328.489 91.0114H330.761ZM338.423 93.277C337.253 93.277 336.25 92.9811 335.412 92.3892C334.578 91.7926 333.937 90.9332 333.487 89.8111C333.042 88.6842 332.819 87.3277 332.819 85.7415C332.824 84.1553 333.049 82.8059 333.494 81.6932C333.944 80.5758 334.585 79.7235 335.419 79.1364C336.257 78.5492 337.258 78.2557 338.423 78.2557C339.588 78.2557 340.589 78.5492 341.427 79.1364C342.265 79.7235 342.907 80.5758 343.352 81.6932C343.802 82.8106 344.027 84.16 344.027 85.7415C344.027 87.3324 343.802 88.6913 343.352 89.8182C342.907 90.9403 342.265 91.7973 341.427 92.3892C340.594 92.9811 339.592 93.277 338.423 93.277ZM338.423 91.054C339.332 91.054 340.049 90.6065 340.575 89.7116C341.105 88.812 341.37 87.4886 341.37 85.7415C341.37 84.5862 341.25 83.6155 341.008 82.8295C340.767 82.0436 340.426 81.4517 339.985 81.054C339.545 80.6515 339.024 80.4503 338.423 80.4503C337.519 80.4503 336.804 80.9001 336.278 81.7997C335.752 82.6946 335.487 84.0085 335.483 85.7415C335.478 86.9015 335.594 87.8769 335.831 88.6676C336.072 89.4583 336.413 90.0549 336.853 90.4574C337.294 90.8551 337.817 91.054 338.423 91.054ZM351.436 78.2557C352.132 78.2604 352.809 78.3835 353.467 78.625C354.13 78.8617 354.727 79.25 355.257 79.7898C355.787 80.3248 356.209 81.0421 356.521 81.9418C356.834 82.8414 356.99 83.9541 356.99 85.2798C356.995 86.5298 356.862 87.6473 356.592 88.6321C356.327 89.6122 355.946 90.4408 355.449 91.1179C354.952 91.795 354.353 92.3111 353.652 92.6662C352.951 93.0213 352.163 93.1989 351.287 93.1989C350.368 93.1989 349.554 93.0189 348.844 92.6591C348.138 92.2992 347.568 91.8068 347.132 91.1818C346.696 90.5568 346.429 89.8419 346.33 89.0369H348.922C349.054 89.6146 349.324 90.0739 349.732 90.4148C350.143 90.7509 350.662 90.919 351.287 90.919C352.295 90.919 353.072 90.4811 353.616 89.6051C354.161 88.7292 354.433 87.5123 354.433 85.9545H354.334C354.102 86.3712 353.801 86.7311 353.432 87.0341C353.063 87.3324 352.643 87.562 352.175 87.723C351.711 87.884 351.218 87.9645 350.697 87.9645C349.845 87.9645 349.078 87.7609 348.396 87.3537C347.719 86.9465 347.182 86.3878 346.784 85.6776C346.391 84.9673 346.192 84.1553 346.188 83.2415C346.188 82.2945 346.405 81.4446 346.841 80.6918C347.281 79.9342 347.894 79.3376 348.68 78.902C349.466 78.4616 350.385 78.2462 351.436 78.2557ZM351.443 80.3864C350.932 80.3864 350.47 80.5118 350.058 80.7628C349.651 81.009 349.329 81.3452 349.092 81.7713C348.86 82.1927 348.744 82.6638 348.744 83.1847C348.749 83.7008 348.865 84.1695 349.092 84.5909C349.324 85.0123 349.639 85.3461 350.037 85.5923C350.439 85.8385 350.899 85.9616 351.415 85.9616C351.798 85.9616 352.156 85.8883 352.487 85.7415C352.819 85.5947 353.107 85.3911 353.354 85.1307C353.605 84.8655 353.799 84.5649 353.936 84.2287C354.078 83.8925 354.147 83.5374 354.142 83.1634C354.142 82.6662 354.024 82.2069 353.787 81.7855C353.555 81.3641 353.235 81.0256 352.828 80.7699C352.426 80.5142 351.964 80.3864 351.443 80.3864ZM364.682 93.1989C363.986 93.1941 363.306 93.0734 362.643 92.8366C361.981 92.5952 361.384 92.2045 360.854 91.6648C360.323 91.1203 359.902 90.3982 359.589 89.4986C359.277 88.5942 359.123 87.4744 359.128 86.1392C359.128 84.8939 359.26 83.7836 359.526 82.8082C359.791 81.8329 360.172 81.009 360.669 80.3366C361.166 79.6596 361.765 79.1435 362.466 78.7884C363.171 78.4332 363.96 78.2557 364.831 78.2557C365.745 78.2557 366.554 78.4356 367.26 78.7955C367.97 79.1553 368.543 79.6477 368.979 80.2727C369.414 80.893 369.684 81.5938 369.788 82.375H367.196C367.063 81.8163 366.791 81.3712 366.379 81.0398C365.972 80.7036 365.456 80.5355 364.831 80.5355C363.822 80.5355 363.046 80.9735 362.501 81.8494C361.962 82.7254 361.689 83.928 361.685 85.4574H361.784C362.016 85.0407 362.317 84.6832 362.686 84.3849C363.055 84.0866 363.472 83.857 363.936 83.696C364.405 83.5303 364.9 83.4474 365.42 83.4474C366.273 83.4474 367.037 83.651 367.714 84.0582C368.396 84.4654 368.936 85.0265 369.334 85.7415C369.732 86.4517 369.928 87.2661 369.923 88.1847C369.928 89.1411 369.71 90.0005 369.27 90.7628C368.83 91.5204 368.216 92.117 367.43 92.5526C366.644 92.9882 365.728 93.2036 364.682 93.1989ZM364.668 91.0682C365.184 91.0682 365.645 90.9427 366.053 90.6918C366.46 90.4408 366.782 90.1023 367.018 89.6761C367.255 89.25 367.371 88.7718 367.366 88.2415C367.371 87.7206 367.258 87.2495 367.026 86.8281C366.798 86.4067 366.483 86.0729 366.081 85.8267C365.679 85.5805 365.219 85.4574 364.703 85.4574C364.32 85.4574 363.962 85.5308 363.631 85.6776C363.299 85.8243 363.01 86.0279 362.764 86.2884C362.518 86.544 362.324 86.8423 362.182 87.1832C362.045 87.5194 361.973 87.8793 361.969 88.2628C361.973 88.7694 362.092 89.2358 362.324 89.6619C362.556 90.0881 362.875 90.429 363.283 90.6847C363.69 90.9403 364.152 91.0682 364.668 91.0682ZM373.311 93.1562C372.88 93.1562 372.511 93.0047 372.203 92.7017C371.895 92.3987 371.744 92.0294 371.749 91.5938C371.744 91.1676 371.895 90.803 372.203 90.5C372.511 90.197 372.88 90.0455 373.311 90.0455C373.728 90.0455 374.09 90.197 374.398 90.5C374.71 90.803 374.869 91.1676 374.874 91.5938C374.869 91.8826 374.793 92.1454 374.646 92.3821C374.504 92.6188 374.315 92.8082 374.078 92.9503C373.846 93.0876 373.59 93.1562 373.311 93.1562ZM382.31 93.277C381.14 93.277 380.136 92.9811 379.298 92.3892C378.465 91.7926 377.823 90.9332 377.374 89.8111C376.929 88.6842 376.706 87.3277 376.706 85.7415C376.711 84.1553 376.936 82.8059 377.381 81.6932C377.83 80.5758 378.472 79.7235 379.305 79.1364C380.143 78.5492 381.145 78.2557 382.31 78.2557C383.474 78.2557 384.476 78.5492 385.314 79.1364C386.152 79.7235 386.794 80.5758 387.239 81.6932C387.688 82.8106 387.913 84.16 387.913 85.7415C387.913 87.3324 387.688 88.6913 387.239 89.8182C386.794 90.9403 386.152 91.7973 385.314 92.3892C384.481 92.9811 383.479 93.277 382.31 93.277ZM382.31 91.054C383.219 91.054 383.936 90.6065 384.462 89.7116C384.992 88.812 385.257 87.4886 385.257 85.7415C385.257 84.5862 385.136 83.6155 384.895 82.8295C384.653 82.0436 384.313 81.4517 383.872 81.054C383.432 80.6515 382.911 80.4503 382.31 80.4503C381.405 80.4503 380.69 80.9001 380.165 81.7997C379.639 82.6946 379.374 84.0085 379.369 85.7415C379.365 86.9015 379.481 87.8769 379.717 88.6676C379.959 89.4583 380.3 90.0549 380.74 90.4574C381.18 90.8551 381.704 91.054 382.31 91.054ZM395.65 93.277C394.48 93.277 393.476 92.9811 392.638 92.3892C391.805 91.7926 391.163 90.9332 390.713 89.8111C390.268 88.6842 390.046 87.3277 390.046 85.7415C390.051 84.1553 390.275 82.8059 390.721 81.6932C391.17 80.5758 391.812 79.7235 392.645 79.1364C393.483 78.5492 394.485 78.2557 395.65 78.2557C396.814 78.2557 397.816 78.5492 398.654 79.1364C399.492 79.7235 400.133 80.5758 400.578 81.6932C401.028 82.8106 401.253 84.16 401.253 85.7415C401.253 87.3324 401.028 88.6913 400.578 89.8182C400.133 90.9403 399.492 91.7973 398.654 92.3892C397.82 92.9811 396.819 93.277 395.65 93.277ZM395.65 91.054C396.559 91.054 397.276 90.6065 397.801 89.7116C398.332 88.812 398.597 87.4886 398.597 85.7415C398.597 84.5862 398.476 83.6155 398.235 82.8295C397.993 82.0436 397.652 81.4517 397.212 81.054C396.772 80.6515 396.251 80.4503 395.65 80.4503C394.745 80.4503 394.03 80.9001 393.505 81.7997C392.979 82.6946 392.714 84.0085 392.709 85.7415C392.704 86.9015 392.82 87.8769 393.057 88.6676C393.299 89.4583 393.64 90.0549 394.08 90.4574C394.52 90.8551 395.043 91.054 395.65 91.054ZM414.128 82.0909V84.0795H407.679V82.0909H414.128ZM409.291 93V81.0611C409.291 80.3272 409.443 79.7164 409.746 79.2287C410.054 78.741 410.465 78.3764 410.982 78.1349C411.498 77.8935 412.071 77.7727 412.7 77.7727C413.145 77.7727 413.541 77.8082 413.886 77.8793C414.232 77.9503 414.488 78.0142 414.653 78.071L414.142 80.0597C414.033 80.0265 413.896 79.9934 413.73 79.9602C413.564 79.9223 413.38 79.9034 413.176 79.9034C412.698 79.9034 412.359 80.0194 412.161 80.2514C411.966 80.4787 411.869 80.8054 411.869 81.2315V93H409.291ZM421.589 82.0909V84.0795H415.317V82.0909H421.589ZM416.866 79.4773H419.437V89.7188C419.437 90.0644 419.489 90.3295 419.593 90.5142C419.702 90.6941 419.844 90.8172 420.019 90.8835C420.194 90.9498 420.388 90.983 420.602 90.983C420.763 90.983 420.909 90.9711 421.042 90.9474C421.179 90.9238 421.283 90.9025 421.354 90.8835L421.788 92.8935C421.65 92.9408 421.454 92.9929 421.198 93.0497C420.947 93.1065 420.639 93.1397 420.275 93.1491C419.631 93.1681 419.051 93.071 418.535 92.858C418.019 92.6402 417.609 92.304 417.306 91.8494C417.008 91.3949 416.861 90.8267 416.866 90.1449V79.4773Z" fill="#4A60A1"/>
</g>
<defs>
<filter id="filter0_d_81_1985" x="0.19191" y="0.888882" width="519.616" height="221.616" filterUnits="userSpaceOnUse" color-interpolation-filters="sRGB">
<feFlood flood-opacity="0" result="BackgroundImageFix"/>
<feColorMatrix in="SourceAlpha" type="matrix" values="0 0 0 0 0 0 0 0 0 0 0 0 0 0 0 0 0 0 127 0" result="hardAlpha"/>
<feOffset dy="25.697"/>
<feGaussianBlur stdDeviation="36.404"/>
<feComposite in2="hardAlpha" operator="out"/>
<feColorMatrix type="matrix" values="0 0 0 0 0.231373 0 0 0 0 0.301961 0 0 0 0 0.505882 0 0 0 0.08 0"/>
<feBlend mode="normal" in2="BackgroundImageFix" result="effect1_dropShadow_81_1985"/>
<feBlend mode="normal" in="SourceGraphic" in2="effect1_dropShadow_81_1985" result="shape"/>
</filter>
</defs>
</svg>
