<svg width="44" height="44" viewBox="0 0 44 44" fill="none" xmlns="http://www.w3.org/2000/svg">
<path d="M37.125 37.1248V19.8513C37.1219 19.661 37.0808 19.4733 37.0041 19.2991C36.9273 19.125 36.8165 18.9679 36.6781 18.8373L22.9281 6.34195C22.6746 6.11005 22.3435 5.98145 22 5.98145C21.6565 5.98145 21.3254 6.11005 21.0719 6.34195L7.32187 18.8373C7.18351 18.9679 7.07269 19.125 6.99595 19.2991C6.9192 19.4733 6.87808 19.661 6.875 19.8513V37.1248" stroke="#4A60A1" stroke-width="2.75" stroke-linecap="round" stroke-linejoin="round"/>
<path d="M2.75 37.125H41.25" stroke="#4A60A1" stroke-width="2.75" stroke-linecap="round" stroke-linejoin="round"/>
<path d="M26.125 37.125V27.5C26.125 27.1353 25.9801 26.7856 25.7223 26.5277C25.4644 26.2699 25.1147 26.125 24.75 26.125H19.25C18.8853 26.125 18.5356 26.2699 18.2777 26.5277C18.0199 26.7856 17.875 27.1353 17.875 27.5V37.125" stroke="#4A60A1" stroke-width="2.75" stroke-linecap="round" stroke-linejoin="round"/>
</svg>
