<svg width="64" height="62" viewBox="0 0 64 62" fill="none" xmlns="http://www.w3.org/2000/svg">
<path d="M61.8087 30.2562H61.7869C61.4912 30.2562 61.2064 30.1437 60.9906 29.9442L48.7391 18.5852C48.2639 18.1444 48.2367 17.4025 48.6757 16.9291C49.1164 16.4538 49.8584 16.4266 50.3318 16.8656L62.4581 28.1067C62.7737 28.3171 62.9805 28.6763 62.9805 29.0826C62.9805 29.732 62.4563 30.2562 61.8087 30.2562ZM38.2563 8.44342C37.9715 8.44342 37.6849 8.34003 37.46 8.13142C33.9536 4.88263 31.4903 2.59705 31.4903 2.59705C31.1728 2.30319 31.044 1.85877 31.1529 1.43975C31.2617 1.02073 31.5937 0.697843 32.0145 0.596261L32.234 0.543656C32.858 0.394912 33.4856 0.775842 33.6434 1.39621C34.5613 2.24696 36.5403 4.08268 39.0544 6.4118C39.5297 6.85259 39.5569 7.59449 39.1179 8.06794C38.8857 8.31645 38.5719 8.44342 38.2563 8.44342Z" fill="#4A60A1"/>
<path d="M55.9297 61.4889C55.3238 61.4889 54.8105 61.0227 54.7615 60.4096C54.7416 60.1557 54.8032 59.9144 54.9248 59.7131V29.0754C54.9248 28.4278 55.449 27.9036 56.0966 27.9036C56.7442 27.9036 57.2684 28.4278 57.2684 29.0754V60.3044C57.2684 60.9157 56.7986 61.4236 56.1891 61.4726L56.0222 61.4853C55.9914 61.4871 55.9605 61.4889 55.9297 61.4889Z" fill="#4A60A1"/>
<path d="M50.6601 17.4298C50.0144 17.4298 49.4883 16.9074 49.4883 16.2598L49.4665 5.92571C48.9713 5.78059 48.6158 5.31985 48.6249 4.77929C48.6376 4.13171 49.1763 3.6111 49.8184 3.62924L50.6583 3.64376C51.2968 3.65464 51.8084 4.17524 51.8084 4.81376L51.8319 16.2544C51.8337 16.9019 51.3095 17.428 50.6619 17.4298C50.6619 17.4298 50.6619 17.4298 50.6601 17.4298Z" fill="#4A60A1"/>
<path d="M49.1821 18.1845C49.1821 18.9702 49.8183 19.6063 50.6039 19.6063C51.3891 19.6063 52.0275 18.9707 52.0275 18.1845V4.66876C52.0275 3.88311 51.3914 3.24695 50.6057 3.24695H42.0547C41.2691 3.24695 40.6329 3.88311 40.6329 4.66876V10.2104C40.6329 10.996 41.2691 11.6322 42.0547 11.6322C42.8404 11.6322 43.4766 10.996 43.4766 10.2104V6.09058H49.1821V18.1845Z" fill="#1E2640" stroke="#1E2640" stroke-width="0.5"/>
<path d="M1.23174 28.0347L1.2315 28.0349C0.653239 28.5648 0.610718 29.4648 1.14171 30.0442C1.42145 30.3502 1.8068 30.5063 2.19129 30.5063C2.53429 30.5063 2.87793 30.3829 3.15056 30.1345L3.15084 30.1342L32.1058 3.66792L60.6465 30.1276L60.6468 30.1279C61.2231 30.6602 62.1211 30.6274 62.6559 30.0508L62.6559 30.0507C63.1888 29.476 63.1556 28.576 62.5791 28.0413L62.5791 28.0413L33.0791 0.692671C32.5372 0.188159 31.6984 0.186353 31.1528 0.685803L1.23174 28.0347Z" fill="#4A60A1" stroke="#4A60A1" stroke-width="0.5"/>
<path d="M7.80731 61.7353H56.1074L57.2775 60.3117H57.5275V60.311V25.7559C57.5275 24.9702 56.8913 24.3341 56.1056 24.3341C55.32 24.3341 54.6838 24.9702 54.6838 25.7559V58.8899H9.22913V24.702C9.22913 23.9163 8.59296 23.2802 7.80731 23.2802C7.02166 23.2802 6.3855 23.9163 6.3855 24.702V60.3135C6.3855 61.0992 7.02166 61.7353 7.80731 61.7353Z" fill="#4A60A1" stroke="#4A60A1" stroke-width="0.5"/>

</svg>