<svg width="17.12" height="17.12" viewBox="0 0 18 18" fill="none" xmlns="http://www.w3.org/2000/svg">
<path d="M6.14639 9C6.14639 7.42383 7.42379 6.14574 8.99996 6.14574C10.5761 6.14574 11.8542 7.42383 11.8542 9C11.8542 10.5762 10.5761 11.8543 8.99996 11.8543C7.42379 11.8543 6.14639 10.5762 6.14639 9ZM4.60341 9C4.60341 11.4282 6.57173 13.3965 8.99996 13.3965C11.4282 13.3965 13.3965 11.4282 13.3965 9C13.3965 6.57177 11.4282 4.60346 8.99996 4.60346C6.57173 4.60346 4.60341 6.57177 4.60341 9ZM12.5431 4.42917C12.5431 4.99629 13.003 5.4569 13.5708 5.4569C14.1379 5.4569 14.5985 4.99629 14.5985 4.42917C14.5985 3.86205 14.1386 3.40213 13.5708 3.40213C13.003 3.40213 12.5431 3.86205 12.5431 4.42917ZM5.54054 15.9693C4.70577 15.9313 4.25208 15.7923 3.95054 15.6747C3.55079 15.5191 3.26585 15.3337 2.96569 15.0343C2.66622 14.7348 2.48018 14.4499 2.32526 14.0501C2.20769 13.7486 2.06868 13.2949 2.03064 12.4601C1.98914 11.5576 1.98084 11.2865 1.98084 9C1.98084 6.71355 1.98983 6.44313 2.03064 5.53989C2.06868 4.70512 2.20838 4.25212 2.32526 3.94989C2.48087 3.55014 2.66622 3.2652 2.96569 2.96504C3.26516 2.66557 3.5501 2.47953 3.95054 2.32461C4.25208 2.20704 4.70577 2.06803 5.54054 2.02999C6.44309 1.98849 6.7142 1.98019 8.99996 1.98019C11.2864 1.98019 11.5568 1.98918 12.4601 2.02999C13.2948 2.06803 13.7478 2.20773 14.0501 2.32461C14.4498 2.47953 14.7348 2.66557 15.0349 2.96504C15.3344 3.2645 15.5197 3.55014 15.6753 3.94989C15.7929 4.25143 15.9319 4.70512 15.97 5.53989C16.0115 6.44313 16.0198 6.71355 16.0198 9C16.0198 11.2858 16.0115 11.5569 15.97 12.4601C15.9319 13.2949 15.7922 13.7486 15.6753 14.0501C15.5197 14.4499 15.3344 14.7348 15.0349 15.0343C14.7355 15.3337 14.4498 15.5191 14.0501 15.6747C13.7485 15.7923 13.2948 15.9313 12.4601 15.9693C11.5575 16.0108 11.2864 16.0191 8.99996 16.0191C6.7142 16.0191 6.44309 16.0108 5.54054 15.9693ZM5.47 0.489779C4.55846 0.531275 3.93601 0.675821 3.39172 0.887453C2.82875 1.106 2.35154 1.39924 1.87503 1.87507C1.3992 2.35089 1.10596 2.8281 0.887411 3.39176C0.675779 3.93606 0.531233 4.5585 0.489737 5.47004C0.447549 6.38296 0.437866 6.67482 0.437866 9C0.437866 11.3252 0.447549 11.617 0.489737 12.53C0.531233 13.4415 0.675779 14.0639 0.887411 14.6082C1.10596 15.1712 1.39851 15.6491 1.87503 16.1249C2.35085 16.6008 2.82806 16.8933 3.39172 17.1125C3.93671 17.3242 4.55846 17.4687 5.47 17.5102C6.38361 17.5517 6.67478 17.5621 8.99996 17.5621C11.3258 17.5621 11.617 17.5524 12.5299 17.5102C13.4415 17.4687 14.0639 17.3242 14.6082 17.1125C15.1712 16.8933 15.6484 16.6008 16.1249 16.1249C16.6007 15.6491 16.8933 15.1712 17.1125 14.6082C17.3241 14.0639 17.4694 13.4415 17.5102 12.53C17.5517 11.6163 17.5614 11.3252 17.5614 9C17.5614 6.67482 17.5517 6.38296 17.5102 5.47004C17.4687 4.5585 17.3241 3.93606 17.1125 3.39176C16.8933 2.82879 16.6007 2.35158 16.1249 1.87507C15.6491 1.39924 15.1712 1.106 14.6089 0.887453C14.0639 0.675821 13.4415 0.530583 12.5306 0.489779C11.6177 0.448282 11.3258 0.437908 9.00065 0.437908C6.67478 0.437908 6.38361 0.447591 5.47 0.489779Z" fill="white"/>
</svg>