<svg width="17.12" height="17.12" viewBox="0 0 18 18" fill="none" xmlns="http://www.w3.org/2000/svg">
<path d="M0.437866 2.42684C0.437866 1.85026 0.630712 1.37459 1.01639 0.999828C1.40206 0.625051 1.90346 0.437672 2.52054 0.437672C3.12661 0.437672 3.61696 0.622163 3.99163 0.99118C4.3773 1.37172 4.57015 1.86756 4.57015 2.47873C4.57015 3.03224 4.38283 3.49349 4.00816 3.8625C3.62249 4.24304 3.11559 4.43331 2.48748 4.43331H2.47095C1.86488 4.43331 1.37452 4.24304 0.999857 3.8625C0.625191 3.48197 0.437866 3.00341 0.437866 2.42684ZM0.652745 17.5618V6.00735H4.32221V17.5618H0.652745ZM6.3553 17.5618H10.0248V11.11C10.0248 10.7064 10.0688 10.395 10.157 10.176C10.3113 9.78388 10.5454 9.45234 10.8595 9.18137C11.1735 8.91037 11.5675 8.77489 12.0413 8.77489C13.2755 8.77489 13.8926 9.6455 13.8926 11.3868V17.5618H17.5621V10.937C17.5621 9.23037 17.1764 7.93598 16.405 7.05382C15.6336 6.17167 14.6144 5.73059 13.3471 5.73059C11.9256 5.73059 10.8182 6.37059 10.0248 7.65057V7.68517H10.0082L10.0248 7.65057V6.00735H6.3553C6.37733 6.37635 6.38835 7.52372 6.38835 9.44947C6.38835 11.3752 6.37733 14.0793 6.3553 17.5618Z" fill="white"/>
</svg>
