<svg width="17.22" height="17.22" viewBox="0 0 19 19" fill="none" xmlns="http://www.w3.org/2000/svg">
<path d="M5.67187 9.7C6.44364 11.2938 7.73239 12.5792 9.32812 13.3469C9.44583 13.4026 9.57603 13.4267 9.70589 13.4169C9.83575 13.407 9.96081 13.3635 10.0687 13.2906L12.4125 11.725C12.516 11.6548 12.6357 11.6119 12.7603 11.6004C12.8849 11.589 13.0104 11.6092 13.125 11.6594L17.5125 13.5437C17.6625 13.6062 17.7877 13.7161 17.869 13.8567C17.9504 13.9973 17.9832 14.1608 17.9625 14.3219C17.8234 15.4073 17.2937 16.4048 16.4723 17.1278C15.6509 17.8508 14.5943 18.2498 13.5 18.25C10.1185 18.25 6.87548 16.9067 4.48439 14.5156C2.0933 12.1245 0.75 8.88151 0.75 5.5C0.750247 4.40575 1.1492 3.34908 1.87221 2.52771C2.59522 1.70634 3.59274 1.17656 4.67812 1.0375C4.83922 1.01681 5.00266 1.04964 5.14326 1.13096C5.28386 1.21227 5.39384 1.33755 5.45625 1.4875L7.34062 5.88438C7.38963 5.9972 7.41013 6.12035 7.40032 6.24296C7.39051 6.36558 7.35069 6.4839 7.28437 6.5875L5.71875 8.96875C5.64905 9.07645 5.60814 9.20023 5.59993 9.32826C5.59172 9.45629 5.61649 9.58428 5.67187 9.7V9.7Z" stroke="white" stroke-width="1.5" stroke-linecap="round" stroke-linejoin="round"/>
</svg>
