<svg width="48" height="48" viewBox="0 0 48 48" fill="none" xmlns="http://www.w3.org/2000/svg">
<rect width="48" height="48" rx="4" fill="#EDEFF6"/>
<path d="M22.0703 22.9219C22.0703 22.9219 23.9626 22.7832 23.9626 20.5929C23.9626 18.4025 22.4145 17.3335 20.4534 17.3335H14.0002V29.5741H20.4534C20.4534 29.5741 24.3928 29.6969 24.3928 25.9612C24.3928 25.9612 24.5646 22.9219 22.0703 22.9219ZM19.9889 19.5091H20.4534C20.4534 19.5091 21.3306 19.5091 21.3306 20.7827C21.3306 22.0561 20.8147 22.2407 20.2296 22.2407H16.8436V19.5091H19.9889ZM20.271 27.3985H16.8436V24.1274H20.4534C20.4534 24.1274 21.7608 24.1105 21.7608 25.8084C21.7608 27.2401 20.7843 27.3877 20.271 27.3985ZM29.6467 20.4479C24.8776 20.4479 24.8818 25.151 24.8818 25.151C24.8818 25.151 24.5546 29.8301 29.6467 29.8301C29.6467 29.8301 33.8901 30.0694 33.8901 26.5751H31.7078C31.7078 26.5751 31.7805 27.891 29.7195 27.891C29.7195 27.891 27.5368 28.0354 27.5368 25.7614H33.9628C33.9628 25.7614 34.666 20.4479 29.6467 20.4479ZM27.5129 24.1274C27.5129 24.1274 27.7793 22.2407 29.6952 22.2407C31.6106 22.2407 31.5866 24.1274 31.5866 24.1274H27.5129ZM32.095 19.562H26.9786V18.0546H32.095V19.562Z" fill="#4A60A1"/>
</svg>