<svg width="48" height="48" viewBox="0 0 48 48" fill="none" xmlns="http://www.w3.org/2000/svg">
<rect width="48" height="48" rx="4" fill="#EDEFF6"/>
<g clip-path="url(#clip0_43_596)">
<path d="M14 16.3232C14 15.6498 14.2252 15.0943 14.6757 14.6566C15.1261 14.2188 15.7117 14 16.4324 14C17.1403 14 17.713 14.2155 18.1506 14.6465C18.601 15.0909 18.8263 15.67 18.8263 16.3838C18.8263 17.0303 18.6075 17.569 18.1699 18C17.7194 18.4444 17.1274 18.6667 16.3938 18.6667H16.3745C15.6667 18.6667 15.094 18.4444 14.6564 18C14.2188 17.5555 14 16.9966 14 16.3232ZM14.251 34V20.505H18.5367V34H14.251ZM20.9112 34H25.1969V26.4646C25.1969 25.9932 25.2484 25.6296 25.3514 25.3737C25.5315 24.9158 25.805 24.5286 26.1718 24.2121C26.5386 23.8956 26.9987 23.7374 27.5521 23.7374C28.9936 23.7374 29.7143 24.7542 29.7143 26.7879V34H34V26.2626C34 24.2693 33.5496 22.7576 32.6486 21.7273C31.7477 20.697 30.5573 20.1818 29.0772 20.1818C27.417 20.1818 26.1236 20.9293 25.1969 22.4242V22.4646H25.1776L25.1969 22.4242V20.505H20.9112C20.9369 20.936 20.9498 22.2761 20.9498 24.5252C20.9498 26.7744 20.9369 29.9326 20.9112 34Z" fill="#4A60A1"/>
</g>
<defs>
<clipPath id="clip0_43_596">
<rect width="20" height="20" fill="white" transform="translate(14 14)"/>
</clipPath>
</defs>
</svg>