<svg width="48" height="48" viewBox="0 0 48 48" fill="none" xmlns="http://www.w3.org/2000/svg">
<rect width="48" height="48" rx="4" fill="#EDEFF6"/>
<g clip-path="url(#clip0_43_599)">
<path d="M20.6672 24C20.6672 22.1591 22.1591 20.6664 24 20.6664C25.8409 20.6664 27.3336 22.1591 27.3336 24C27.3336 25.8409 25.8409 27.3336 24 27.3336C22.1591 27.3336 20.6672 25.8409 20.6672 24ZM18.8651 24C18.8651 26.836 21.164 29.1349 24 29.1349C26.836 29.1349 29.1349 26.836 29.1349 24C29.1349 21.164 26.836 18.8651 24 18.8651C21.164 18.8651 18.8651 21.164 18.8651 24ZM28.1381 18.6616C28.1381 19.3239 28.6753 19.8619 29.3385 19.8619C30.0008 19.8619 30.5388 19.3239 30.5388 18.6616C30.5388 17.9992 30.0016 17.462 29.3385 17.462C28.6753 17.462 28.1381 17.9992 28.1381 18.6616ZM19.9596 32.1397C18.9847 32.0953 18.4548 31.933 18.1026 31.7956C17.6357 31.6139 17.3029 31.3974 16.9523 31.0477C16.6026 30.6979 16.3853 30.3651 16.2044 29.8982C16.067 29.546 15.9047 29.0162 15.8603 28.0412C15.8118 26.9871 15.8021 26.6704 15.8021 24C15.8021 21.3296 15.8126 21.0137 15.8603 19.9588C15.9047 18.9838 16.0679 18.4548 16.2044 18.1018C16.3861 17.6349 16.6026 17.3021 16.9523 16.9515C17.3021 16.6018 17.6349 16.3845 18.1026 16.2036C18.4548 16.0662 18.9847 15.9039 19.9596 15.8595C21.0137 15.811 21.3304 15.8013 24 15.8013C26.6704 15.8013 26.9863 15.8118 28.0412 15.8595C29.0162 15.9039 29.5452 16.067 29.8982 16.2036C30.3651 16.3845 30.6979 16.6018 31.0485 16.9515C31.3982 17.3013 31.6147 17.6349 31.7964 18.1018C31.9338 18.454 32.0961 18.9838 32.1406 19.9588C32.189 21.0137 32.1987 21.3296 32.1987 24C32.1987 26.6696 32.189 26.9863 32.1406 28.0412C32.0961 29.0162 31.933 29.546 31.7964 29.8982C31.6147 30.3651 31.3982 30.6979 31.0485 31.0477C30.6987 31.3974 30.3651 31.6139 29.8982 31.7956C29.546 31.933 29.0162 32.0953 28.0412 32.1397C26.9871 32.1882 26.6704 32.1979 24 32.1979C21.3304 32.1979 21.0137 32.1882 19.9596 32.1397ZM19.8772 14.0606C18.8126 14.109 18.0856 14.2779 17.4499 14.525C16.7924 14.7803 16.2351 15.1228 15.6785 15.6785C15.1228 16.2342 14.7803 16.7916 14.525 17.4499C14.2779 18.0856 14.109 18.8126 14.0606 19.8772C14.0113 20.9435 14 21.2843 14 24C14 26.7157 14.0113 27.0565 14.0606 28.1228C14.109 29.1874 14.2779 29.9144 14.525 30.5501C14.7803 31.2076 15.122 31.7658 15.6785 32.3215C16.2342 32.8772 16.7916 33.2189 17.4499 33.475C18.0864 33.7221 18.8126 33.891 19.8772 33.9394C20.9443 33.9879 21.2843 34 24 34C26.7165 34 27.0565 33.9887 28.1228 33.9394C29.1874 33.891 29.9144 33.7221 30.5501 33.475C31.2076 33.2189 31.7649 32.8772 32.3215 32.3215C32.8772 31.7658 33.2189 31.2076 33.475 30.5501C33.7221 29.9144 33.8918 29.1874 33.9394 28.1228C33.9879 27.0557 33.9992 26.7157 33.9992 24C33.9992 21.2843 33.9879 20.9435 33.9394 19.8772C33.891 18.8126 33.7221 18.0856 33.475 17.4499C33.2189 16.7924 32.8772 16.2351 32.3215 15.6785C31.7658 15.1228 31.2076 14.7803 30.5509 14.525C29.9144 14.2779 29.1874 14.1082 28.1236 14.0606C27.0574 14.0121 26.7165 14 24.0008 14C21.2843 14 20.9443 14.0113 19.8772 14.0606Z" fill="#4A60A1"/>
</g>
<defs>
<clipPath id="clip0_43_599">
<rect width="20" height="20" fill="white" transform="translate(14 14)"/>
</clipPath>
</defs>
</svg>