<svg width="48" height="48" viewBox="0 0 48 48" fill="none" xmlns="http://www.w3.org/2000/svg">
<rect width="48" height="48" rx="4" fill="#EDEFF6"/>
<g clip-path="url(#clip0_43_593)">
<path d="M14 24C14 22.1867 14.4467 20.5133 15.34 18.98C16.2333 17.4467 17.4467 16.2333 18.98 15.34C20.5133 14.4467 22.1867 14 24 14C25.8133 14 27.4867 14.4467 29.02 15.34C30.5533 16.2333 31.7667 17.4467 32.66 18.98C33.5533 20.5133 34 22.1867 34 24C34 25.8133 33.5533 27.4867 32.66 29.02C31.7667 30.5533 30.5533 31.7667 29.02 32.66C27.4867 33.5533 25.8133 34 24 34C22.1867 34 20.5133 33.5533 18.98 32.66C17.4467 31.7667 16.2333 30.5533 15.34 29.02C14.4467 27.4867 14 25.8133 14 24ZM15.66 24C15.66 26.08 16.36 27.9133 17.76 29.5C18.4 28.2467 19.4133 27.0533 20.8 25.92C22.1867 24.7867 23.54 24.0733 24.86 23.78C24.66 23.3133 24.4667 22.8933 24.28 22.52C21.9867 23.2533 19.5067 23.62 16.84 23.62C16.32 23.62 15.9333 23.6133 15.68 23.6C15.68 23.6533 15.6767 23.72 15.67 23.8C15.6633 23.88 15.66 23.9467 15.66 24ZM15.92 21.94C16.2133 21.9667 16.6467 21.98 17.22 21.98C19.4467 21.98 21.56 21.68 23.56 21.08C22.5467 19.28 21.4333 17.78 20.22 16.58C19.1667 17.1133 18.2633 17.8533 17.51 18.8C16.7567 19.7467 16.2267 20.7933 15.92 21.94ZM18.9 30.58C20.4067 31.7533 22.1067 32.34 24 32.34C24.9867 32.34 25.9667 32.1533 26.94 31.78C26.6733 29.5 26.1533 27.2933 25.38 25.16C24.1533 25.4267 22.9167 26.1 21.67 27.18C20.4233 28.26 19.5 29.3933 18.9 30.58ZM21.96 15.94C23.1333 17.1533 24.22 18.6667 25.22 20.48C27.0333 19.72 28.4 18.7533 29.32 17.58C27.7733 16.3 26 15.66 24 15.66C23.32 15.66 22.64 15.7533 21.96 15.94ZM25.94 21.9C26.14 22.3267 26.3667 22.8667 26.62 23.52C27.6067 23.4267 28.68 23.38 29.84 23.38C30.6667 23.38 31.4867 23.4 32.3 23.44C32.1933 21.6267 31.54 20.0133 30.34 18.6C29.4733 19.8933 28.0067 20.9933 25.94 21.9ZM27.12 24.92C27.8 26.8933 28.26 28.92 28.5 31C29.5533 30.32 30.4133 29.4467 31.08 28.38C31.7467 27.3133 32.1467 26.16 32.28 24.92C31.3067 24.8533 30.42 24.82 29.62 24.82C28.8867 24.82 28.0533 24.8533 27.12 24.92Z" fill="#4A60A1"/>
</g>
<defs>
<clipPath id="clip0_43_593">
<rect width="20" height="20" fill="white" transform="translate(14 14)"/>
</clipPath>
</defs>
</svg>
